<svg width="24" height="24" viewBox="0 0 24 24" fill="none" xmlns="http://www.w3.org/2000/svg">
<g id="amazon-icon-1 1" clip-path="url(#clip0_6_311)">
<g id="Group">
<path id="Vector" d="M20.6611 19.3764C10.946 24 4.91662 20.1316 1.05705 17.782C0.818222 17.6339 0.412297 17.8166 0.764493 18.2211C2.05031 19.7802 6.26419 23.5381 11.7645 23.5381C17.2687 23.5381 20.5431 20.5347 20.9527 20.0108C21.3596 19.4914 21.0722 19.2048 20.661 19.3764H20.6611ZM23.3896 17.8696C23.1287 17.5299 21.8032 17.4665 20.969 17.569C20.1335 17.6685 18.8795 18.1791 18.9885 18.4857C19.0444 18.6006 19.1586 18.5491 19.7326 18.4975C20.3081 18.44 21.9203 18.2366 22.2563 18.6757C22.5938 19.1179 21.7421 21.2245 21.5865 21.5642C21.4362 21.9039 21.6439 21.9915 21.9262 21.7653C22.2047 21.5391 22.7087 20.9533 23.047 20.1244C23.3829 19.2909 23.5879 18.1283 23.3896 17.8696Z" fill="#FF9900"/>
<path id="Vector_2" fill-rule="evenodd" clip-rule="evenodd" d="M14.1288 9.94199C14.1288 11.1551 14.1594 12.1669 13.5462 13.2442C13.0513 14.1202 12.2673 14.6589 11.3914 14.6589C10.1957 14.6589 9.49936 13.7479 9.49936 12.4034C9.49936 9.74922 11.8775 9.2675 14.1288 9.2675V9.94199ZM17.269 17.5321C17.0631 17.716 16.7653 17.7292 16.5332 17.6065C15.4996 16.7481 15.3156 16.3495 14.7463 15.5305C13.0382 17.2737 11.8294 17.7948 9.61328 17.7948C6.9942 17.7948 4.95322 16.1787 4.95322 12.9421C4.95322 10.415 6.32415 8.69374 8.273 7.85291C9.96363 7.10826 12.3243 6.97689 14.1288 6.77111V6.36814C14.1288 5.62793 14.1856 4.75201 13.7521 4.11261C13.371 3.53885 12.644 3.30233 12.0045 3.30233C10.8177 3.30233 9.75776 3.91108 9.49936 5.17243C9.44674 5.4528 9.24096 5.72874 8.96068 5.74185L5.93863 5.41782C5.68466 5.36076 5.40438 5.15498 5.47445 4.76512C6.17081 1.10376 9.47739 0 12.438 0C13.9535 0 15.933 0.402971 17.1288 1.55049C18.6442 2.96509 18.4996 4.85273 18.4996 6.90682V11.7596C18.4996 13.218 19.104 13.8574 19.6733 14.6458C19.8748 14.9261 19.9186 15.2634 19.6646 15.4735C19.0295 16.0034 17.8995 16.9889 17.2777 17.5408L17.2689 17.5321" fill="#2C2C2C"/>
<path id="Vector_3" d="M20.6611 19.3764C10.946 24 4.91662 20.1316 1.05705 17.782C0.818222 17.6339 0.412297 17.8166 0.764493 18.2211C2.05031 19.7802 6.26419 23.5381 11.7645 23.5381C17.2687 23.5381 20.5431 20.5347 20.9527 20.0108C21.3596 19.4914 21.0722 19.2048 20.661 19.3764H20.6611ZM23.3896 17.8696C23.1287 17.5299 21.8032 17.4665 20.969 17.569C20.1335 17.6685 18.8795 18.1791 18.9885 18.4857C19.0444 18.6006 19.1586 18.5491 19.7326 18.4975C20.3081 18.44 21.9203 18.2366 22.2563 18.6757C22.5938 19.1179 21.7421 21.2245 21.5865 21.5642C21.4362 21.9039 21.6439 21.9915 21.9262 21.7653C22.2047 21.5391 22.7087 20.9533 23.047 20.1244C23.3829 19.2909 23.5879 18.1283 23.3896 17.8696Z" fill="#FF9900"/>
<path id="Vector_4" fill-rule="evenodd" clip-rule="evenodd" d="M14.1288 9.94199C14.1288 11.1551 14.1594 12.1669 13.5462 13.2442C13.0513 14.1202 12.2673 14.6589 11.3914 14.6589C10.1957 14.6589 9.49936 13.7479 9.49936 12.4034C9.49936 9.74922 11.8775 9.2675 14.1288 9.2675V9.94199ZM17.269 17.5321C17.0631 17.716 16.7653 17.7292 16.5332 17.6065C15.4996 16.7481 15.3156 16.3495 14.7463 15.5305C13.0382 17.2737 11.8294 17.7948 9.61328 17.7948C6.9942 17.7948 4.95322 16.1787 4.95322 12.9421C4.95322 10.415 6.32415 8.69374 8.273 7.85291C9.96363 7.10826 12.3243 6.97689 14.1288 6.77111V6.36814C14.1288 5.62793 14.1856 4.75201 13.7521 4.11261C13.371 3.53885 12.644 3.30233 12.0045 3.30233C10.8177 3.30233 9.75776 3.91108 9.49936 5.17243C9.44674 5.4528 9.24096 5.72874 8.96068 5.74185L5.93863 5.41782C5.68466 5.36076 5.40438 5.15498 5.47445 4.76512C6.17081 1.10376 9.47739 0 12.438 0C13.9535 0 15.933 0.402971 17.1288 1.55049C18.6442 2.96509 18.4996 4.85273 18.4996 6.90682V11.7596C18.4996 13.218 19.104 13.8574 19.6733 14.6458C19.8748 14.9261 19.9186 15.2634 19.6646 15.4735C19.0295 16.0034 17.8995 16.9889 17.2777 17.5408L17.2689 17.5321" fill="#2C2C2C"/>
</g>
</g>
<defs>
<clipPath id="clip0_6_311">
<rect width="24" height="24" fill="white"/>
</clipPath>
</defs>
</svg>
